<?xml version="1.0" encoding="utf8" standalone="no"?>
<svg viewBox="0 0 304.2471 100.43053" xmlns="http://www.w3.org/2000/svg">
<g transform="translate(-442.04425,-44.01028)">
<path d="m613.7402,59.0384c-5.21371,9.00657-12.72041,17.60575-19.6419,25.37638-6.22195,5.45517-8.88661,7.7747-15.70897,13.10437-.16259,3.65901-3.83817,8.69911-5.92503,11.76602-1.92873,4.32701-6.58681,6.76027-11.23835,6.38363-2.85034-.11935-10.94362-1.34308-8.76296,3.45116 2.32688,1.38344 4.95229-3.0755 7.92984-1.24998 5.36736-.18503 11.08407.3476 15.43984,3.82355 2.24946,2.30436 3.6546,6.16088 3.33592,9.551 .90801,5.48377-6.97936,6.29501-10.85141,7.20101-2.08542.83015-8.31822-2.11155-7.71794.7896 12.88155,1.21198 36.85953,5.69554 38.92446.88165 1.66729-4.0085 2.4172-8.05618 6.61234-10.36023 4.34456-4.03455 9.75731-6.921 13.17579-11.88687 3.55428-3.80134 6.62107-17.62737 10.34685-21.27907 3.30687-3.37217 9.53528,4.82587 11.96263,1.18215l-6.77851-36.73518-21.1026-1.99919z" fill="#eee" stroke="#1a1a1a" stroke-width=".99921"/>
<path d="m443.80881,135.67413c10.20694.63661 20.43952.84623 30.65222.22615l51.53681-2.0032 40.20598-15.99355 11.10663-10.44023c.22215-3.48007.89522-6.3589 1.11738-9.83898-5.93111,4.28592-8.36173,7.51087-14.80498,11.02478-2.47567,1.56627-8.88825,3.81305-11.69499,4.55836-1.99692-.2208-4.07457-.18855-5.71591-1.52364-2.80583.28124-5.84483-.39167-8.30255,1.31394l-18.79768,8.90416c-.57903,1.48756-.26012,4.09548-2.58734,3.40181-7.28777.3571-14.61273.29414-21.8172,1.59208-13.96248,1.99448-28.04872,3.06957-42.01211,5.01114l-9.55268,1.99013 .66642,1.77705z" fill="#fdd99b" stroke="#1a1a1a" stroke-width=".99921"/>
<path d="m689.04316,122.34619 8.55212.11107 3.33198-1.11067 3.66519-3.10985 1.88812-2.11026 2.66559-.77747 3.77626,1.44386 3.10986,3.33199 4.10945,3.77626 6.44184,3.22092 6.99718,3.99839 4.66479,1.55492c0,0 1.55492,3.55413.9996,3.66519s-2.6656.77747-3.6652.9996-8.44103.22213-8.44103.22213l-7.66358-.3332c0,0-4.10945-.44426-4.55372-.44426s-7.10824-.9996-7.10824-.9996-2.33239-.44426-3.55412-.22213-6.99718-.22213-6.99718-.22213l-6.10865.11106-15.21608-6.21971 13.10582-6.88611z" fill="#fdd99b" stroke="#1a1a1a" stroke-width=".99921"/>
<path d="m695.59609,125.56711c2.89162.00724 5.8021.13578 8.68201.06776 1.4518-.58661 3.16043-.717 4.24644-1.95348 1.62881-1.31547 3.19219-2.69812 4.50893-4.33399 .92981-.20947 1.8697-.6662 2.79353-.72855 1.2557.56543 2.69441.85907 3.83521,1.5952 2.21537,2.49077 4.62778,4.80868 7.15497,6.96924 3.71259,1.82402 7.41012,3.67623 10.95705,5.8098 1.43351.8945 2.92439,1.66071 4.56833,2.08456 .81144.35551 1.86331.44944 2.5216.97155 .76733,1.63736 2.0366,4.26726-1.00479,4.04891-3.28145,1.02059-6.78191.52722-10.16755.68508-5.32925-.19632-10.66465-.43001-15.93801-1.27726-2.67064-.33388-5.33725-1.04714-8.04105-.65994-3.29282-.06384-6.57356-.40134-9.86901-.21192-1.17167.0358-2.36226.17279-3.40521-.47936l-13.94827-5.70149 13.10582-6.88611z" fill="#fdd99b" stroke="#1a1a1a" stroke-width=".99921"/>
<path d="m613.14546,69.13254c.52197,4.88915 2.46684,7.75496 6.04202,12.20826 3.25254,3.01103 6.13416,7.01194 10.28226,4.79653 1.98019-1.59727 2.10244-2.59035.21924-.25274-2.82172,5.31647-1.62641,12.44212-2.77262,18.47854-.54402,7.65384-1.75163,15.37554-.11924,22.9798 1.5719,5.23605 2.09121,12.66146 7.22568,15.50824 3.99249.49194 8.05286-.0798 12.07883.17644 17.31097.08623 34.58452-1.47159 51.89375-1.2701-1.16915-5.18044 1.51113-14.28047-3.52649-16.90812-8.9016-1.15549-17.90435-.33068-26.83975-.92532-3.61901-.0069-11.8133,1.7877-12.39562,1.69383 5.72195-.92675 11.48406-2.67303 17.31201-1.53886 5.43489.45045 10.89818.35743 16.33975.08646 .86256-6.37118-8.49068-2.88056-12.28998-4.29151-1.77659-.11883-3.55329-.23629-5.33007-.35242s-13.88279.04725-16.32615-.12234c-.06248,3.08172.33334,3.21728.3333,6.21613 .11104-4.99448-.66658-2.33106-.22251-6.2159-.33521-7.08845 5.03191-13.73791 5.69842-20.66305 1.52365-6.13773 1.93228-12.41806 1.78203-18.71653 .2401-7.5117-1.16779-14.97203-3.11101-22.1885-1.78731-4.20805-4.07479-7.52398-8.53591-10.5316-3.54549-1.97171-6.98715-2.68296-11.14977-2.7899-4.94308.14031-8.47372.92678-13.32571,2.80698-4.86539,2.54434-9.68829,6.70712-13.45721,12.11167 0,0-.4367,5.54786.19475,9.70401z" fill="#369" stroke="#1a1a1a" stroke-width=".99921"/>
<path d="m515.77976,133.45282c-.71758-3.9615-1.48957-7.93048-1.68493-11.9572-.3404-2.64453.93446-5.10252 1.60339-7.5786 .93674-1.81134 3.17597-.99494 4.78495-1.12253-.85571-.22501-4.57344.84195-5.11992-1.49939-1.42512-1.43215-2.212-3.37173-1.61998-5.36373 .4302-1.55942-.60245-4.02779 1.34234-4.64613l4.69255-2.70724 6.44183,1.55493c.99871,1.39643 3.0142,2.58805 2.22046,4.59896-.06684.73053-.45039,3.01517-.3257,2.81727 .46194-1.3742-.41188-4.46827 1.78803-4.33155 1.96961-.01977 3.98715-.36027 5.92899.00282 2.48838,1.06561 5.2763,1.60416 7.42734,3.31836 1.65093,1.02339 3.82437,1.82689 4.31992,3.93961 .85073,1.66717.3969,3.45288-.16346,5.10845-.5602,1.92759-2.75814.56528-4.16879.8286-2.14096-.15679-4.26753.20492-6.3503.60497-1.81493.79402-2.44339,3.14419-2.52823,4.95896 .33163,2.25716.94506,4.49264.73785,6.80083 .20934,1.30375-.02662,2.17697-1.51059,2.01048l-17.81575,2.66213z" fill="#565248" stroke="#1a1a1a" stroke-width=".99921"/>
<path d="m442.69814,141.22746c-.80815-2.38704 1.74625-1.96777 3.30645-2.37824 8.84375-1.64662 17.75559-2.88733 26.73095-3.52287 5.79617-.89257 11.43933-2.78991 17.22749-3.69152 6.39103-.53049 12.78695-.31063 19.18338-.0135 3.30158-.04177 6.69743.17085 9.93581-.46091 6.34754-1.73213 12.77121-3.2298 18.8312-5.84739 4.96383-1.80373 9.70861-4.15989 14.84563-5.47097 3.49069-.96825 6.95853-2.34375 10.64364-1.93853 3.1635-.28109 6.30345.4732 9.2414,1.5054 1.59524,1.40345 3.61691,2.52738 4.95881,4.09689 .67639,2.90958 1.94174,5.76694 1.24837,8.79799 .222,1.97822-.43845,3.36306-2.46238,3.83112-2.05811,1.15948-4.16166,2.16756-6.57971,2.12759-4.60831.9571-9.42966-1.25293-13.92756.04597-4.40445,2.24086-9.20393,3.62397-13.89022,5.14029-7.09452.24968-14.16497.69398-21.26833.38961-5.83371.0821-11.51309-2.02267-17.3867-1.50488-8.54328-.36489-17.11427-.77872-25.66188-.53486-6.47055.4191-12.93281,1.3273-19.42086.71558-4.03646-.38695-8.15214.1161-12.14745-.38992l-3.40804-.89685z" fill="#fdd99b" stroke="#1a1a1a" stroke-width=".99921"/>
</g>
</svg>
