<?xml version="1.0" encoding="utf8" standalone="no"?>
<svg viewBox="0 0 360.62384 188.23164" xmlns="http://www.w3.org/2000/svg">
<g transform="translate(-635.63009,-258.09007)">
<path d="m800.0803,439.01078h22.42263l23.44185-.33973c0,0 11.21131-1.35895 12.57026-1.35895s14.26895-.67947 14.26895-.67947l6.79474,2.03842 15.28815.33973 14.94843-.67947 15.62789-1.69868h12.23053 7.13447l5.77553,2.03842c0,0-.33974,2.03842 1.69868,2.03842s5.43579,1.01921 5.43579,1.01921l4.41658-.67947 3.39737-4.07685 2.7179-5.43579 3.72149-2.62416 4.8046-1.68161 4.80461-1.20115 3.84368-1.20115 2.16207-3.12299 4.80461-1.44139 3.36322-2.88276v-2.64253l-2.4023-.96092-4.32415-1.20115-2.64253.24023-6.24599,3.12299-10.08967,1.20115-8.64828.48046-5.5253.24023-5.76553,1.92184-13.21266.48046-16.81612-1.20115-19.69887-2.16207-23.30234-1.20115-4.8046-1.68161-4.56438-.48046-6.00575.72069-3.123-.24023-11.53105-3.84369-15.37473-5.28506-9.84944-.96092-9.12875-.24023-15.8552,1.20115-18.01726,18.2575 21.25387,15.86389z" fill="#fdd99b" stroke="#1a1a1a" stroke-width=".99921"/>
<path d="m773.0609,398.40317 5.76553-13.45289 6.00575-14.89428 6.00576-11.05059 4.56437-7.92759 5.28507-5.76553 11.77128-5.76553 8.88852,7.20691 8.40806,15.37474 1.92184,25.22417 1.20115,13.45289v4.08392l-7.68737-.72069-6.72645-.48046-3.84368-.72069-2.16207-14.89428 .72069-14.89427 2.16207-9.60921-2.4023,10.3299-.24023,14.65404 .24023,10.81036-.96092,10.08967-3.12299,11.05059-4.56438,8.64829-3.36322,5.76553c0,0-20.6598,6.48621-22.10118,5.76552s-14.17359-22.34141-14.17359-22.34141l8.40806-19.93911z" fill="#fdd99b" stroke="#1a1a1a" stroke-width=".99921"/>
<path d="m636.1297,442.60553c.04697-4.00063 6.83164-3.0178 10.01087-3.72693 5.05884-.45014 10.3182-.12959 14.53605-3.38161 4.20373-1.47743 10.03099.52904 13.46022-2.56839 4.56239-6.15795 5.56741-14.24096 7.71442-21.47046 1.72246-8.74426.47936-18.10458 4.48651-26.26762 7.87509-10.52517 15.51762-21.37744 21.65979-33.00271 2.0019-6.63824 1.44264-14.06924 5.14977-20.25126 2.72268-6.19473 8.22737-12.47128 15.64254-11.57233 6.97215-.62897 14.09117-2.20025 20.24803-5.56118-1.90793-4.48331 7.39065-3.71914 7.3073-4.63544-5.67082,1.98688-11.66424,2.63776-17.63719,1.99292-2.9008-2.47067-1.25082-6.32051-2.67637-9.53053 .75416-3.94601-3.39105-7.16379-.4761-10.86695 3.21409-2.69142-.12246-6.18927-.89036-8.39747 3.25132-4.1986 1.73278-12.20431 8.28565-13.32914 4.34372-1.83384 8.68054-3.7154 13.46682-2.48871l14.10554,1.08503c1.58386,5.81869 4.10392,11.60348 5.11868,17.44277-1.53636,8.92096-6.04398,17.96535-3.25015,27.06276 3.4557,4.71596 10.09398,3.27499 15.20583,4.58679 7.81748,1.29381 16.41038,2.63406 22.68429,7.70185 7.09388,5.59984 7.7726,15.60912 13.60753,22.25886 4.24524,5.57452 6.87612,12.24985 10.9834,17.81135 3.64193,3.92085 9.17643,5.4169 12.69255,9.61888 6.62757,5.77125 12.38755,12.34769 16.86031,19.93158 3.72638,3.72505 7.40643,7.87642 11.55879,11.04954 3.31022,1.65483 7.29239,1.00504 9.87941,4.20588 4.69593,3.3352 10.44814,4.01478 15.62793,6.28512 .02563,3.23918-8.90829-1.72766-7.6441,3.05765-3.3062,1.37682-7.40596,1.07151-10.19208-1.35895-4.94509.47865-9.08107-2.33166-12.91004-5.09606-5.24805,1.06285-4.84934-1.55578-7.3883-4.56135-8.65831-7.73172-19.97847-12.22646-27.62273-21.11616-7.21036-4.26327-11.81612-11.28618-16.85868-17.69877-5.71544-6.10094-12.82225-10.88524-16.86927-18.39387-2.0525-5.58202-4.92677-1.2255-7.541,1.60581-3.96149,3.63737-10.04654,3.93195-14.88427,6.18998l-29.78203,10.3182-24.97065-14.60871c-1.99568,6.53692-3.42601,13.33975-7.98271,18.6721-4.8233,7.13515-10.86249,13.98009-13.2795,22.3475-1.2275,7.85994-4.86137,15.2145-8.19414,22.37587-4.26607,7.92-9.97453,15.28144-14.19984,23.03101 .01003,4.32178-6.58744,3.55782-9.85795,3.84469-5.88769.1954-11.76603.72511-17.66072.60844-1.38751-3.07182-7.13754-.38011-10.28886-1.18905-3.35428.77394-4.5631-.84084-7.23519-2.01093z" fill="#fdd99b" stroke="#1a1a1a" stroke-width=".99921"/>
<path d="m745.91486,421.22504c-3.74622-10.74242-6.8061-21.75668-11.79899-32.01692-3.62108-9.2811-6.89906-18.73589-8.71597-28.55418-.55393-2.93405-2.86049-7.46857 2.01313-5.7794 4.65582.68784 9.76421-.41294 13.52909-3.05171 4.43365-3.58779 6.30545-9.63116 4.70241-15.10544-1.4262-6.35139-3.50499-12.53759-5.21034-18.79607 .92467-2.00333 7.03704-4.51335 5.55412-.08128 4.10733,8.99874 8.32249,17.9906 13.37949,26.51134 4.28424,3.64976 10.65107,4.90285 15.45184,1.45519 3.09782-3.78064 2.52032-9.47504 2.37753-14.18385-.46113-5.25585-1.59244-10.53127-1.74902-15.75521-5.10427-4.32297 4.83085-.93815 6.02285.34637 1.47198,4.93595 4.56302,9.34998 4.79964,14.59879 1.16151,7.46615 2.00665,15.11947 5.02461,22.11559 4.22544,3.09324-3.23483,7.94216-3.70365,11.79024-3.75893,8.56115-8.03429,16.94684-10.75839,25.92048-2.15598,4.64456-4.35417,9.3649-3.82262,14.63675l-1.15085,25.31829-25.94488-9.36898z" fill="#eee" stroke="#1a1a1a" stroke-width=".99921"/>
<path d="m743.51258,415.21929 2.64253-4.80461 5.76553-4.8046 7.68737-3.84368 6.48621-1.92185 7.68737-1.68161-6.00576,9.12875 6.00576-8.64829 3.84368,5.5253 5.5253,9.60921 6.00576,10.81036 5.76552,7.9276 3.60346,2.16207 4.08391-1.68161 2.88276-5.28507 2.64253-6.00575 2.64254-6.96668v9.36898l-1.44138,5.28506-3.123,6.24599-3.60345,4.56437-4.56438-.24023-4.8046,3.60346-6.96668,1.92184-8.16782.24023-10.32991-.24023-8.16782-6.00576-7.44714-7.2069-5.5253-8.16783-3.12299-8.88852z" fill="#369" stroke="#1a1a1a" stroke-width=".99921"/>
<path d="m737.2666,274.08401c-.39112-2.87971.72815-5.36242 2.32598-7.6758 1.07356-2.32625 3.61826-3.32111 5.53801-4.8448 2.70846-1.22378 5.65598-2.18512 8.54696-2.86023 2.78074.10017 5.67077-.55386 8.3344.4766 2.97487.79771 5.99543,1.53514 8.58843,3.26906 2.38323,1.11103 4.44943,2.6807 6.26051,4.57405 2.27721,1.70849 2.52817,4.75677 3.67243,7.19692 .86771,1.97394.00267,4.15977.02769,6.23891-.24075,2.50517-.22161,5.07576-1.30236,7.40483-1.43118,4.07418-2.67554,8.21186-3.85225,12.36325-.90036,1.89223-2.81754,3.84337-5.10812,3.28544 .12144-1.7025-.75759-3.66399.33421-5.14901 .96226-1.70298 2.70312-3.31058 2.00021-5.4259 .13385-2.15225-.5008-3.76471-2.81082-4.21576-2.39819-.75917-5.28245.26742-6.64494,2.43641 .16187,2.32073-3.39728,1.14301-4.00434.59798-.095-2.06138 1.46381-4.55318-.10509-6.23097-1.30889-1.70857-2.99764-3.31772-2.02698-5.62288l1.1261-8.82096c-6.04604-.14513-12.09417-.113-18.13739.12011-.86368.99027-1.17305,2.89273-2.76264,2.88275z" stroke="#1a1a1a" stroke-width=".99921"/>
</g>
</svg>
