<?xml version="1.0" encoding="utf8" standalone="no"?>
<svg viewBox="0 0 331.67014 103.61809" xmlns="http://www.w3.org/2000/svg">
<g transform="translate(-694.55987,-600.63762)">
<path d="m839.37906,651.65404c-6.84607-5.31929-7.2786-14.4753-8.90542-22.31219-1.46172-6.64693-.99512-17.87439 7.20115-19.38937 6.77076-1.72788 13.74376.70485 19.10919,4.87011 15.98446,9.87591 32.81642,18.34078 48.73973,28.28912 6.31854,5.03876 12.79015,9.92286 20.42256,12.80421 15.99093,7.04606 32.56881,12.69645 48.75087,19.23999 10.53005,3.374 13.53088,1.32125 24.21579,2.7989 4.99967,1.49972 14.71787,1.52181 23.46687,3.86759 6.6455,6.66322-7.2481,7.7827-11.1607,9.17224-9.1536-.90538-17.20781,4.27153-23.14216,8.64279-6.86305,2.68611-10.58377-.49078-11.55013-6.94318-5.97367-3.96874-11.01324-4.47966-17.8331-6.45191-10.88726-2.60432-22.05814-3.55703-33.06987-5.32157-8.97331-2.66674-16.58404-8.53684-25.21702-12.10977-6.89707-3.64523-14.45191-5.30363-22.01726-6.8606-11.63027-2.52181-22.09707-8.78701-33.86861-10.61352-1.70989-.21767-3.48178-.20053-5.14189.31716z" fill="#d9bb7a" stroke="#000" stroke-linecap="round" stroke-linejoin="round" stroke-miterlimit="10"/>
<path d="m838.89374,651.90497c-6.84607-5.31929-10.74373-14.25873-12.37055-22.09562-1.46172-6.64693 1.38716-19.17381 9.58343-20.68879 6.55419-1.29474 14.82661,1.7877 20.19204,5.95296 15.98446,9.87591 32.81642,18.34078 48.73973,28.28912 6.31854,5.03876 12.79015,9.92286 20.42256,12.80421 15.99093,7.04606 32.56881,12.69645 48.75087,19.23999 10.53005,3.374 13.2246,2.85264 23.90951,4.33029 4.99967,1.49972 17.78067,3.97203 25.91707,5.0927 6.6455,6.66322-8.1669,6.09817-12.0795,7.48771-8.2348.31973-14.45132,4.57781-20.38567,8.94907-6.86305,2.68611-11.80888-2.17531-12.77524-8.62771-5.97367-3.96874-13.76974-4.17338-20.5896-6.14563-10.88726-2.60432-22.05814-3.55703-33.06987-5.32157-8.97331-2.66674-16.58404-8.53684-25.21702-12.10977-6.89707-3.64523-14.45191-5.30363-22.01726-6.8606-11.63027-2.52181-22.09707-8.78701-33.86861-10.61352-1.70989-.21767-3.48178-.20053-5.14189.31716z" fill="#fdd99b" stroke="#000" stroke-linecap="round" stroke-linejoin="round" stroke-miterlimit="10"/>
<path d="m838.89374,652.21124c-5.36564,2.00727-10.97968,4.27637-16.82725,3.53413-2.44155-.01281-4.79212-.41866-7.11801-1.16687-4.27126-.90088-7.87622-3.63184-12.14734-4.54022-1.83629-2.34912-.93067-6.28216-1.73406-9.21453-.19324-3.93442.01563-7.89688.25323-11.83147 .71883-4.77878 1.14039-9.63267 2.66564-14.2463 .91436-3.90629 2.3697-7.6375 4.06731-11.2642 .60015-2.29732 3.67869-.66067 5.47755-1.00898 6.18202.376 12.32844-.70614 18.44755-1.33518 2.79454.29621 5.58869.7183 8.35634,1.19159 2.05021,1.00936 4.05303,2.20041 5.97221,3.46189 .29311,1.54068 3.63967,5.25065.4086,4.29748-3.36101-.51422-6.77291-.4705-10.13727-.1014-1.81593,1.2814-4.38699,2.21009-5.38666,4.27036-.77741,2.4739-2.38656,4.82048-2.09079,7.50079 .05673,3.68959-.32924,7.43611.62639,11.04456 .62907,3.1525.95364,6.42814 2.58955,9.264 1.10505,2.8286 2.60078,5.44736 4.64724,7.69999l1.92977,2.44436z" fill="#69c" stroke="#000" stroke-linecap="round" stroke-linejoin="round" stroke-miterlimit="10"/>
<path d="m745.0036,672.84271c-1.06765.20376-1.57096,1.33466-.56153-.57897 .9826-2.79372-1.18985-5.77029-1.41432-8.636-.3622-1.44859.29474-4.10183-2.00845-3.34518-2.32423.43641-4.36273-1.16188-6.66119-.86728-1.64188.07728-4.60578,1.11844-4.14774-2.43785-1.01221-2.97211-4.0722-.69553-4.51122.77088-1.04412,1.49921-1.29082,4.56766-3.90571,3.94749-1.88865-.58876-3.71189-.88326-5.67894-.25166-2.81543.74108-5.23296,2.53139-7.67921,4.05316-1.62127,1.24283-3.08634,2.8103-4.25841,4.49356-.81415,1.87358-2.56423,3.53699-2.26418,5.70911 .00476,3.34504-.05698,6.69095.04116,10.03524l4.28357,10.28054c4.10288.69295 8.15855,1.77084 12.29516,2.19694 4.07582.07157 8.16621.45282 12.23399.2874 3.41436-.50064 6.87948-.85825 10.1104-2.15315 1.76403-.8756 15.98577,1.37808 14.74467-1.56962-.66912-5.78874-4.09715-14.46529-3.42678-20.26275 .07806-.98932-5.96518-.89882-7.19127-1.67186z" fill="#fdd99b" stroke="#000" stroke-linecap="round" stroke-linejoin="round" stroke-miterlimit="10"/>
<path d="m808.67542,603.10687c-7.11477-1.55241-14.5339-1.54546-21.58034.37038-4.8093.95073-9.86298,1.36731-14.09284,4.08648-6.84273,2.89754-12.27685,8.17355-17.29917,13.50719-3.22746,4.67313-5.9022,9.67301-7.78495,15.03349-2.6034,6.95825-4.35933,14.25296-4.7853,21.67865 .90249,4.77313-.50041,10.64628 3.15016,14.39747 2.49002,2.96649 2.90907,7.13178 3.10394,10.88313 .26841,4.46191-.79875,10.28876.53477,13.89816 4.457-.90024 5.88379,4.4961 10.44736,3.02849 4.41564,2.23034 9.26228,1.84916 14.07012,2.23909 1.89675-1.11607-.02189-6.06562.44749-8.74507-.37804-5.53622.77571-10.9857 2.16937-16.31026-6.24606-.42045-12.59247-.91495-18.79621.16977 5.7982-1.22158 11.74888-.08694 17.61476-.19391 2.14301,1.15281-2.46931,7.9225.32874,8.44336l16.44585-.4061c-.05997-7.8748-.16637-15.76444-.85046-23.60547 .10661-3.59432-.7487-7.5107 1.66518-10.55459 2.46311-3.32227 9.71277.0602 7.89779-5.83118 .20697-11.50112.20252-23.36804 4.5427-34.2151 .92007-2.62592 1.88798-5.23517 2.77104-7.87398z" fill="#eee" stroke="#000" stroke-linecap="round" stroke-linejoin="round" stroke-miterlimit="10"/>
<path d="m777.27264,702.72943c5.11986-.33702 10.23355-.13325 15.31559.53552 11.9907.76546 24.02068.56108 36.01168-.10235 3.9796-2.99783 3.23704-7.70233.22429-11.05911-4.49758-6.33362-8.24471-13.18793-13.30119-19.11477-3.3559-4.43982-7.1129-8.53468-11.19181-12.31431-1.92241-1.82952-3.72349-3.89266-5.82388-5.45725 .25716-3.22177 7.09554-5.19257 3.98632-8.29917-2.685-3.84412-7.9094-5.65031-9.31062-10.43289-.33185-3.14105 1.21727-7.12968-1.6285-9.50008-4.13261-1.90201-3.98699,4.20941-3.87526,6.76926 .0781,5.08805-2.87726,9.75439-2.53191,14.90536 .02786,3.37579.00062,6.98048 1.42911,10.08744 1.983,4.75141 5.01246,8.91897 8.17958,12.92902 1.03918,3.26211 4.16165,5.35236 4.41213,8.84491 .96964,3.62255 3.65498,6.47839 5.7932,9.47217 1.04961,1.30822 2.11573,2.58415.39564.57301-2.55575-2.48632-3.97309-5.84308-6.24687-8.50356-2.90253-2.21615-6.39965-2.7596-9.94158-2.99131-4.95261-.58561-9.94293-.98156-14.9279-.59781l-.21661,24.03937 3.24859.21655z" fill="#fdd99b" stroke="#000" stroke-linecap="round" stroke-linejoin="round" stroke-miterlimit="10"/>
<path d="m703.422,670.13556c-.40669,2.59162-.47917,5.23377-.27055,7.83873-.33808,2.9605 3.35186,2.38186 4.97764,1.34329 2.0102-1.21504 4.92452-.85791 6.6097.72977 1.32833.97262 2.41718,2.15832 2.64856,3.84493 .57939,2.1768-.41995,4.48079.30572,6.65666-.09445,1.81019 2.04784,1.95648 3.27019,2.63961 1.61228.23835 3.2401.56062 4.87768.60086 2.02498-.592 4.15884-.93568 5.94801-2.13092 1.8149-.59789 3.82675-.90883 5.73114-.56043 2.26353.70729 3.08428,2.67961 3.51744,4.8215 .11411,1.72616-.12264,4.27391-2.39769,4.11364-2.17814.44301-4.41615.00724-6.62294.0814-8.98085-.18987-17.96239.10959-26.94425.01466-2.21877.36011-4.00416-1.27207-5.74516-2.4252-1.47311-1.86563-2.65304-4.04829-3.50542-6.27754-.29674-2.95805-1.18985-5.96223-.51683-8.93919 .24537-2.49591.70432-4.9789 1.83393-7.23823 .75814-1.80933 1.56279-3.60174 2.49285-5.33009 .86586-.39877 4.28697-1.96624 3.78998.21655z" stroke="#000" stroke-linecap="round" stroke-linejoin="round" stroke-miterlimit="10"/>
</g>
</svg>
