<?xml version="1.0" encoding="utf8" standalone="no"?>
<svg viewBox="0 0 185.96776 173.28278" xmlns="http://www.w3.org/2000/svg">
<g transform="matrix(.76755,0,0,.76755,-154.98265,-8.5662)">
<path d="m300.96512,72.33164c-3.27618-.13079-7.00112.13398-3.65964,3.82409 2.79481,5.32223 4.29364,11.21308 3.94,17.23299-2.35592,7.55008 6.39252,9.99115 11.51691,13.19931 9.89786,5.6156 19.8865,11.22631 30.23855,15.90585 4.48721,1.45569 9.71179,1.35673 13.38217,4.34023 5.50003,2.71609 10.81155,6.05289 16.9718,7.09243 16.02356,4.35056 31.92327,9.23834 48.0384,13.20174 4.20527.22296 8.86624,2.85035 12.29984-.66358 4.6088-3.06857.7831-9.03105-4.11619-8.33899-7.19204-1.21576-14.30699-2.83426-21.08182-5.59471-11.48322-4.1681-23.27664-7.61706-34.07533-13.43705-7.86991-3.53141-15.05219-8.83074-23.72614-10.26422-8.82445-2.04381-15.53448-8.41323-22.76747-13.43951-7.25279-5.01445-12.06371-12.58442-17.81326-19.1193-1.89044-2.90894-6.21871-2.53465-9.14782-3.93928z" fill="#d2b48c" stroke="#1a1a1a" stroke-width=".99921"/>
<path d="m255.15998,87.30856c-6.59132,11.26101-8.98298,24.35024-14.99491,35.88733-2.58042,4.87628-6.62814,8.84821-9.90077,13.28215-3.74551,4.17881-6.98653,9.13625-11.96618,11.94494 1.84303,2.37298 3.38615,5.09153 6.3814,6.13687 2.82168,1.71201 5.64965,3.40699 9.03038,3.60278 5.6131,1.28913 11.28423,2.08166 17.06177,1.91339 7.40549-.09862 14.5342-2.97918 21.16896-6.10834 2.1248-.99203-.36999-4.95138 2.36186-5.67356 5.50115-3.27196 10.69039-7.43641 14.01092-12.96671 1.4786-3.55852 1.68116-7.8734 4.93254-10.38111 3.47536-3.10682 4.26069-7.97499 6.37532-11.97278 1.58542-2.66421 1.98001-5.61743 1.97493-8.66766 .16284-5.26884 1.36249-10.59892-.17202-15.76751l.19907.6618-1.72159-8.26365-3.44319-5.85342-.68864,1.03295-4.47614,1.7216-8.60797-.68864-9.64093-1.37727-6.88637-3.44319-1.37728,1.72159-5.16478,6.54206-4.45638,6.71638z" fill="#eee" stroke="#1a1a1a" stroke-width=".99921"/>
<path d="m419.03598,176.65713c2.81977-.24354 5.60129-2.73166 4.96465-5.74892-.34895-4.14714 2.31609-7.64837 2.94817-11.62672 .95434-4.41215.27641-8.9352.18515-13.394-.15125-2.63666-.82716-5.24635-.84742-7.87583 1.46861-1.96638 5.00346-.40629 5.48081,1.80737 1.39355,2.2013 1.52701,4.9036 3.12011,7.00722 1.59189,1.82998 3.86099,2.87277 4.55172,5.46083 .68402,2.43874.76704,5.02241 1.03184,7.53875 .15263,5.91507-1.15219,11.86154-.14935,17.75843 2.07154,4.13397 3.81334,8.75778 3.29496,13.45368-.53424,3.6665-4.52729,5.96752-8.03169,5.24568-5.5087-.59039-11.01434-1.25064-16.54895-1.54977v-18.07672z" fill="#ffdead" stroke="#1a1a1a" stroke-width=".99921"/>
<path d="m280.34198,84.50264c-4.13059.57285-8.38983,3.35889-10.59375,7.59375s-4.07515,8.24345-4.125,12.8125c-.65943,4.09385 2.38982,8.21728 6,9.6875 4.48234.85854 8.7882-3.70864 13.03125-.71875 10.04722,6.12974 20.29925,12.3073 31.75,15.4375 6.94087,2.41138 13.76383,5.23892 20.15625,8.875 4.77814,2.33052 10.16736,2.53469 15.1875,4.03125 3.17736.58259 2.40997.55512 5.40625,2.46875 2.8647.78585 5.8136,1.31116 8.71875,2 10.62648.64696 21.2835,1.20055 31.90625,1.96875 2.26946,1.53805 4.22808,3.67892 6.5625,5.21875 1.49897,1.39794 3.4345,1.98611 5.3125,2.6875 1.51132.88194 3.23809.59537 4.90625.625 .84774-.52282 1.39056-1.67893 2.125-2.4375l3.65625.90625c1.24052.64276 2.42168-.17399 3.625-.5 1.08816-.2864.4398-1.96595.78125-2.84375l6.625,1.40625c1.41591.61692 2.7953-.13479 4.1875-.4375 1.56581.00688.33923-1.71154.375-2.65625l-3.15625-.96875c-2.77726-.06286-5.47699-.70303-8.1875-1.25-.96504-.34818-2.6185.01427-2.53125-1.4375 3.91302.37567 7.80544.9135 11.71875,1.1875 1.01304-.19021 2.52968.21151 2.46875-1.28125 .60182-1.09223.27141-2.19852-.0625-3.3125-1.39446-.17549-2.81342-.30293-4.21875-.34375-3.57342-.02449-7.07395-.72757-10.46875-1.8125-1.70434-.91875-3.73488-1.42755-5.03125-2.9375-.35248-.59875 1.90639-.11007 2.5625-.125 1.60046.67981.97636-1.13479 1.09375-2.09375-.98274-.81062-1.55184-2.34969-2.875-2.5625-1.62723-.62355-3.27903-.02098-4.90625.28125-2.80116.87128-5.50232,2.03404-8.34375,2.8125-2.1337.51323-4.40608.23335-6.59375.4375-4.766-1.03329-9.53411-2.12675-14.34375-3-2.57658-.46324-5.17683-.90045-7.5625-2.03125-5.31522-2.18601-10.78221-3.93184-16.25-5.6875-8.38749-1.92476-7.39808-2.40314-18.8125-4.625-6.48048-4.39166-13.16988-8.46549-20.28125-11.75-7.84653-3.90526-14.09427-10.18784-20.34375-16.1875-2.49722-2.50658-5.47382-3.7644-8.375-6.15625-2.74681-2.26458-6.96317-3.8541-11.09375-3.28125z" fill="#ffdead" stroke="#1a1a1a" stroke-width=".99921"/>
<path d="m218.16626,148.87693c-4.28998,5.72362-9.19207,11.67409-11.19962,18.26025s-4.84459,9.66091-4.52204,19.44961 3.61212,17.4924 5.2958,26.24521c1.92863,5.65317 3.89595,10.28553 7.64547,15.1021 2.21088,2.74559 5.31983,5.1961 8.54263,6.5835 5.52073,2.28057 12.51383,2.90946 17.65581-.33807 4.59439-2.97802 8.12489-7.30274 11.34113-11.63788 2.94107-6.68457 7.27249-12.56724 10.88104-18.86312 1.26579-2.88448 3.09917-5.93222 1.56049-9.06834-.28789-2.75414-2.95494-4.46915-4.77573-6.24799-2.4774-1.70175-5.55762-2.14824-8.18495-.68427-2.8952,2.3676-4.38952,6.14661-5.2867,9.61655l-.22387,10.7457 .24347-18.01681c4.15047-2.20417 8.1465-5.32068 12.39131-6.96758 15.04153,3.018 30.0241,6.38165 45.28812,8.09534 10.9825,1.90511 22.29765.36723 33.17547,3.09733 10.92976,2.42095 22.18228,2.11092 33.298,2.81379 13.95507-.5455 27.90818-1.3993 41.8437-2.12082 2.54766-.21048 6.93359,1.62824 5.85844-2.62072 .47668-5.29608.32436-10.62851.03491-15.93165-12.07818-.32451-24.14961-.74541-36.13752-2.35596-12.71412-1.6899-25.46085-3.61759-38.05845-5.88157-2.96205-1.59514-5.94463-3.09979-9.41019-2.47516-6.45399.26467-12.85233-.1532-19.17291-1.52465-11.65649-1.90107-23.3219-3.87619-34.76397-6.78686l-9.7564-.69688c.92854-4.22866-4.05996-.15802-6.22773-.04375-5.29729,1.69589-10.52387,3.85893-16.19336,3.53036-5.34125.29626-10.72558-.90549-15.92557-1.98524-5.71361-1.48845-11.24379-4.08906-14.86869-8.92257l-.32249-.34265-.0256-.0272z" fill="#369" stroke="#1a1a1a" stroke-width=".99921"/>
<path d="m254.45157,186.29806c.0527-2.18917-.09603-4.6036 1.68933-6.22801 1.89441-2.35615 5.04861-4.53836 8.17045-3.26233 4.43993,1.28048 7.51033,4.8848 11.0906,7.55004 4.63956,3.01413 10.28712,3.79992 15.69191,4.19855 2.37489.14231 4.84009-.12212 7.14157.54944 1.79093,2.31415 4.45249-.08929 6.74705.99216 2.20379.09611 5.06812,2.89409 3.52617,4.9311-2.45959.07737-4.99136-.2249-7.48363-.06312-4.82737.11405-9.48326,1.54351-14.26483,2.07859-3.68913.46894-7.43087.97072-11.14209.84938-3.10401-.81492-5.24875,2.04196-7.77232,3.23178-.94505.56188-3.63824,1.77504-2.47684-.37959 1.02646-2.48338 1.19465-5.38227-.15359-7.77341-1.30707-1.98364-2.78657-3.92084-4.91602-5.07292-1.74014-1.13593-3.77867-1.6787-5.84776-1.60166z" fill="#ffdead" stroke="#1a1a1a" stroke-width=".99921"/>
<path d="m266.50274,72.15636c1.61381-2.07386 3.31893-4.09391 4.64829-6.36988 3.98234-4.67554 14.42978-14.91604 18.02232-16.62279 3.02697-.71717 27.21319,3.282 30.18233,2.33356 .16118,3.04358.63646,6.10937.59544,9.13938 .33889,3.01094-3.48209.99198-5.2182,1.6212-2.56529-.62104-1.30581,2.39322-1.78126,3.89833-1.04747,1.57306-1.17487,4.08317-3.67554,3.24009-1.90785.4314-2.50707,3.46394-4.1851,4.06431-2.27144-.46418-4.52244-1.47549-6.87046-.91228-2.39091-.15167-1.80198,3.69132-4.22096,4.14304-1.76974,1.76455-4.11859,1.13446-6.32958.96221-4.8935-.32865-9.78215-.9897-14.54271-2.15944-2.0153-.58098-3.95765-1.38494-5.62003-2.68477l-1.00454-.65296z" fill="#ffdead" stroke="#1a1a1a" stroke-width=".99921"/>
<path d="m270.14821,66.2556c-1.9435-3.66274-2.02083-17.98763-.77746-23.23703 .49253-6.00521 4.89303-13.05227 6.68165-16.21882 1.70542-3.01925 12.14199-11.9791 16.18831-12.93843 5.12687-2.31988 9.427-2.94601 16.34309-1.20237 7.10006,1.79002 15.34145,9.26943 17.26655,12.3256 1.83763,2.9173 3.95666,13.24878 2.86572,16.91501-1.17435,3.94652-4.21393,7.31994-7.57362,9.34635-3.89146,1.48359-10.20389.65705-13.9286,2.53159-3.07686,1.97614-4.3197,4.74262-7.28176,6.89387-1.9119,2.61675-13.01014,9.18924-16.41636,8.53382-3.37516-.64945-11.50461.56129-13.36752-2.94959z" stroke="#1a1a1a" stroke-width=".99921"/>
</g>
</svg>
